<?xml version="1.0" encoding="utf-8"?>
<!-- Generator: Adobe Illustrator 18.1.1, SVG Export Plug-In . SVG Version: 6.00 Build 0)  -->
<svg version="1.1" id="Layer_1" xmlns="http://www.w3.org/2000/svg" xmlns:xlink="http://www.w3.org/1999/xlink" x="0px" y="0px"
	 width="256px" height="256px" viewBox="0 0 256 256" style="enable-background:new 0 0 256 256;" xml:space="preserve">
<style type="text/css">
	.st0{fill:#3B3A33;}
</style>
<g>
	<path class="st0" d="M41.4,110.9l0.3-0.3c0.4-1.6,1.1-6.7-4-11.6c-5-4.9-11-5-12.8-5l-0.1,0.1c0,1.8,0.3,7.6,5.1,12.6
		C34.9,111.8,39.9,111.2,41.4,110.9z"/>
	<path class="st0" d="M142.7,171.6c3.5-3.6,3.7-7.8,3.7-9.1l0,0c-1.3-0.1-5.6,0.1-9.2,3.6c-0.7,0.6-1.2,1.3-1.6,1.9v-13.6
		c3.1,2.7,7.1,4.3,11.5,4.3h47.1c6.2,0,11.7-3.2,14.8-8.1h10.3c9.7,0,17.6-7.9,17.6-17.6v-16.3c1.6,0.1,4.4-0.3,7.2-3.1
		c3.5-3.6,3.7-7.9,3.7-9.2l0,0c-1.3-0.1-5.6,0.1-9.3,3.6c-0.6,0.6-1.1,1.2-1.5,1.8v-1c0-1.7-1.4-3-3-3c-1.7,0-3,1.4-3,3v12.6
		c-0.1-0.1-0.2-0.2-0.2-0.2c-3.7-3.5-8-3.6-9.3-3.6l0,0.1c0,1.3,0.2,5.5,3.7,9.2c2.1,2.2,4.2,2.9,5.9,3.1v3.2
		c0,6.4-5.2,11.5-11.5,11.5h-7.8c0.2-0.9,0.3-1.8,0.3-2.7c0.2-1.3,0.3-4.3-2.7-7.2c-3.3-3.2-7.2-3.3-8.4-3.2l0,0
		c0,1.2,0.2,5,3.3,8.2c0.6,0.6,1.1,1,1.7,1.4c0,0,0,0,0,0c0,6.4-5.2,11.5-11.5,11.5H183c2.7-3.1,4.3-7.1,4.3-11.5v-23.1
		c2.1,0.2,6.3,0,10.5-4.3c4.9-5,5.1-10.9,5.1-12.6l-0.1-0.1c-1.8-0.1-7.8,0.1-12.8,5c-1.2,1.2-2.1,2.3-2.7,3.5V91.9
		c0-0.1,0-0.3,0-0.4c0,0,0-0.2,0-0.4c1.1,0.2,4.3,0.4,7.3-2.7c3.2-3.3,3.4-7.1,3.3-8.2l0,0c-1.2,0-5.1,0.1-8.4,3.2
		c-1,1-1.6,1.9-2.1,2.9c0.3-2.3,1.2-4.9,2.9-7c2.3-2.7,6-4.1,11-4.1c1.7,0,3-1.4,3-3s-1.4-3-3-3c-6.8,0-12.1,2.1-15.6,6.2
		c-5.5,6.3-4.7,15.3-4.5,16.9v8.2c-0.6-1.4-1.7-3-3.2-4.5c-5-4.9-11-5-12.8-4.9l-0.1,0.1c0,1.8,0.3,7.6,5.1,12.6
		c4.5,4.6,9.1,4.5,11,4.2v16.7c-0.7-1.2-1.7-2.4-2.9-3.6c-6.3-6-13.7-6.2-15.9-6.2l-0.1,0.1c0,2.2,0.3,9.5,6.4,15.7
		c4.9,5,9.8,5.6,12.6,5.4v5.2c0,6.4-5.2,11.5-11.5,11.5H147c-6.1,0-11.1-4.8-11.5-10.8l0.1,0.1c1.1,0.2,4.7,0.6,8.2-3
		c3.5-3.6,3.7-7.8,3.7-9.1l-0.1,0c-1.3-0.1-5.6,0.1-9.2,3.6c-1.7,1.6-2.5,3.2-2.8,4.7v-10.4c0.3,0.1,0.7,0.2,1.1,0.2
		c9.7,0,17.6-7.9,17.6-17.6V94.6c1.5,0.2,4.5-0.1,7.5-3.1c3.5-3.6,3.7-7.8,3.7-9.1l0,0c-1.3-0.1-5.6,0.1-9.2,3.6
		c-0.8,0.8-1.4,1.6-1.9,2.4V61.6c1.6,0.3,6.5,0.8,11.3-4.2c4.8-5,5.1-10.9,5.1-12.6l-0.1-0.1c-1.8-0.1-7.8,0.1-12.8,5
		c-1.9,1.8-3,3.7-3.6,5.4V38.5c0-1.7-1.4-3-3-3c-1.2,0-2.2,0.7-2.7,1.6c-0.5-2.5-1.9-5.5-4.9-8.4c-6.3-6-13.7-6.2-15.9-6.2l-0.1,0.1
		c0,2.2,0.3,9.5,6.4,15.7c6,6.3,12.3,5.6,14.2,5.2l0,0v22.5c-0.6-1.4-1.7-3-3.2-4.5c-5-4.9-11-5-12.8-5l-0.1,0.1
		c0,1.8,0.3,7.6,5.1,12.6c4.5,4.6,9.1,4.5,11,4.2v36.7c0,6.4-5.2,11.5-11.5,11.5c-0.4,0-0.8,0.1-1.1,0.2v-5.1c0,0,0,0,0-0.1v-9l0,0
		c1,0.2,4.2,0.6,7.4-2.7c3.1-3.2,3.3-7,3.3-8.2l0,0c-1.2,0-5,0.1-8.3,3.2c-1.3,1.3-2,2.6-2.4,3.8V85.4c0-9.7-7.9-17.6-17.6-17.6
		h-3.2c-0.1-1.7-0.7-4-3-6.2c-3.6-3.4-7.8-3.6-9.1-3.5l0,0c0,1.3,0.2,5.4,3.6,9c0.3,0.3,0.5,0.5,0.8,0.7H96.8
		c-0.5-2.6-1.8-5.8-5-8.8c-6.3-6-13.7-6.2-15.9-6.1l-0.1,0.1c0,2.2,0.3,9.5,6.4,15.7c5.7,5.9,11.5,5.6,13.7,5.2h22
		c6.4,0,11.5,5.2,11.5,11.5V94c-0.7-2.1-2.1-4.5-4.5-6.8c-6.3-6-13.7-6.2-15.9-6.2l-0.1,0.1c0,2.2,0.3,9.5,6.4,15.7
		c6,6.2,12.1,5.6,14.1,5.2v29.2c0,0,0,0,0,0v9.6c-0.6-1.4-1.6-2.8-3.1-4.3c-5-4.9-11-5-12.8-4.9l-0.1,0.1c0,1.8,0.3,7.6,5.1,12.6
		c4.4,4.5,8.9,4.5,10.9,4.2v7c0,6.4-5.2,11.5-11.5,11.5h-10.7c2.7-3.1,4.3-7.1,4.3-11.5v-37.8c1.4,0.2,4.5,0.1,7.5-3
		c3.4-3.5,3.6-7.6,3.6-8.9l0,0c-1.3,0-5.4,0.1-9,3.5c-1,0.9-1.6,1.9-2.1,2.8v-5.7c0-9.4-7.4-17.1-16.6-17.6c-0.5-1-1.2-2-2.2-3.1
		c-3.6-3.4-7.8-3.6-9.1-3.5l0,0c0,1.3,0.2,5.4,3.6,9c1.7,1.7,3.4,2.5,4.8,2.9c0.5,0.5,1.2,0.7,2,0.7c6.4,0,11.5,5.2,11.5,11.5v16.8
		c-0.6-1.3-1.6-2.7-3-4.1c-5-4.9-11-5-12.8-5l-0.1,0.1c0,1.8,0.3,7.6,5.1,12.6c4.3,4.5,8.7,4.5,10.8,4.3v17.3c-0.7-1.9-1.9-4-4-6.1
		c-5.7-5.5-12.4-5.7-14.5-5.6l-0.1,0.1c0,2,0.3,8.6,5.8,14.3c5.4,5.6,10.9,5.1,12.8,4.7c-0.2,6.2-5.3,11.2-11.5,11.2H83.9H70.3v-4.8
		c1.6,0.2,5.4,0.3,9.1-3.5c4-4.2,4.3-9,4.2-10.5l-0.1-0.1c-1.5-0.1-6.4,0.1-10.6,4.1c-1.3,1.2-2.1,2.5-2.6,3.7v-25
		c1.4,0.2,4.5,0.1,7.5-3c3.4-3.5,3.6-7.6,3.6-8.9l0,0c-1.3-0.1-5.4,0.1-9,3.5c-1,0.9-1.6,1.9-2.1,2.8c0.3-6.1,5.3-10.9,11.5-10.9
		c1.7,0,3-1.4,3-3s-1.4-3-3-3c-9.7,0-17.6,7.9-17.6,17.6v9.7c-0.4-1-1.1-2.1-2.2-3.1c-3.3-3.2-7.3-3.3-8.5-3.3l0,0
		c0,1.2,0.2,5,3.4,8.4c3,3.1,6.1,3,7.3,2.8v26.6h-4.6c-5.5,0-10.1-3.9-11.2-9l0.1,0.1c1.3,0.3,5.4,0.7,9.5-3.4c4-4.2,4.3-9,4.2-10.5
		l0-0.1c-1.5-0.1-6.4,0.1-10.6,4.1c-2.3,2.2-3.1,4.5-3.4,6.3v-37.2c0,0.2,0.1,0.4,0.1,0.5l0.3,0.3c1.5,0.3,6.5,0.9,11.4-4.2
		c4.8-5,5.1-10.9,5.1-12.6l-0.1-0.1c-1.8-0.1-7.8,0.1-12.8,5c-2.7,2.6-3.7,5.2-4.1,7.4V91.1c0-1.7-1.4-3-3-3c-1.7,0-3,1.4-3,3v38.6
		c-0.8-1.8-2.1-3.7-4-5.6c-6.3-6-13.7-6.2-15.9-6.2L22,118c0,2.2,0.3,9.5,6.3,15.7c5.6,5.8,11.3,5.6,13.6,5.2v16.6
		c0,4.4,1.6,8.4,4.3,11.5H32.1c-5.3,0-9.7-3.5-11.1-8.3c2.1,0.2,6.4,0.1,10.6-4.3c4.8-5,5.1-10.9,5.1-12.6l-0.1-0.1
		c-1.8-0.1-7.8,0.1-12.8,5c-2.5,2.4-3.6,4.9-4,7c-0.6-0.7-1.4-1.1-2.4-1.1c-0.5,0-1,0.1-1.4,0.3c-0.3-1.4-1-3-2.6-4.5
		c-3.3-3.2-7.3-3.3-8.5-3.3l0,0c0,1.2,0.2,5,3.4,8.4c2.3,2.3,4.6,2.9,6.1,2.9c0.4,9.3,8.1,16.8,17.6,16.8h27.6h4.6v2
		c0,0.6,0,1.2,0.1,1.7c-2.8-1.8-5.7-1.9-6.7-1.9l0,0c0,1.2,0.2,5,3.4,8.4c2.9,3,5.9,3,7.2,2.8c2.8,3.5,6.9,5.8,11.6,6.4
		c-1.6,0.4-3.5,1.2-5.4,3.2c-3.8,3.9-4,8.5-4,9.8l0,0.1c1.4,0.1,6-0.1,10-3.8c3.9-3.8,3.4-7.8,3.1-9l0,0h19
		c-0.9,0.4-1.9,1.1-2.9,2.1c-3.2,3.3-3.4,7.1-3.4,8.3l0,0c1.2,0,5.1-0.1,8.4-3.3c2.9-2.8,2.9-5.7,2.7-7.1
		c5.8,0.6,10.4,5.5,10.4,11.5v18.2c0,6.4-5.2,11.5-11.5,11.5c-1.7,0-3,1.4-3,3s1.4,3,3,3c9.7,0,17.6-7.9,17.6-17.6v-18.2
		c0-2.7-0.6-5.2-1.7-7.5c7.7-1.9,13.4-8.8,13.4-17.1v-5C137.1,174.8,139.9,174.4,142.7,171.6z M118,191.2c-3.1-2.8-7.3-4.5-11.8-4.5
		h-0.1c0,0,0,0,0,0H88c0.8-0.4,1.7-1,2.6-1.9c3.1-3.3,3.3-7,3.3-8.2l0,0c-1.2-0.1-5,0.1-8.3,3.2c-2.8,2.7-2.9,5.6-2.7,7h-1.1
		c-6.4,0-11.5-5.2-11.5-11.5v-2h13.6h10.1h23.9c4.4,0,8.4-1.6,11.5-4.3v10.8C129.4,186,124.3,191.1,118,191.2z"/>
	<path class="st0" d="M154.4,38.5c1,0.2,4.2,0.6,7.4-2.7c3.1-3.2,3.3-7,3.3-8.2l0,0c-1.2,0-5,0.1-8.3,3.2c-3.3,3.2-2.8,6.5-2.6,7.5
		L154.4,38.5z"/>
	<path class="st0" d="M252.5,140.7L252.5,140.7c-1.4-0.1-5.7,0-9.3,3.5c-0.5,0.5-1,1-1.3,1.6c-0.4-1.1-1.5-1.9-2.8-1.9
		c-1.7,0-3,1.4-3,3v17.6c-0.6-1.5-1.6-3.1-3.3-4.7c-5-4.8-10.9-5-12.7-4.9l-0.1,0.1c0,1.8,0.3,7.6,5.1,12.5
		c4.5,4.6,9.1,4.5,10.9,4.2c-0.3,6.1-5.3,11-11.5,11h-28c1-0.6,2.1-1.4,3.1-2.5c4.5-4.7,4.8-10.2,4.8-11.8l-0.1-0.1
		c-1.7-0.1-7.3,0.1-12,4.6c-3.8,3.7-4.1,7.6-3.9,9.7h-13.1c-5.9,0-10.8-4.5-11.5-10.3h19.6c0.9,0,1.7-0.4,2.2-1
		c1.4-0.1,3.4-0.7,5.3-2.7c3-3.1,3.2-6.8,3.2-7.9l0,0c-1.1,0-4.8,0.1-8,3.1c-0.9,0.9-1.5,1.7-1.9,2.5c-0.3-0.1-0.5-0.1-0.8-0.1
		h-24.3c-9.7,0-17.6,7.9-17.6,17.6v38.5c0,9.7,7.9,17.6,17.6,17.6c1.7,0,3-1.4,3-3c0-1.7-1.4-3-3-3c-6.4,0-11.5-5.2-11.5-11.5v-19.7
		c1,0.1,3-0.1,4.9-2.1c2.3-2.4,2.4-5.2,2.4-6l0,0c-0.9,0-3.7,0-6.1,2.4c-0.5,0.5-0.9,1.1-1.2,1.6V191c1.4,0.1,3.8-0.3,6.1-2.7
		c3-3.1,3.2-6.8,3.2-7.9l0,0c-1.1,0-4.8,0.1-8,3.1c-0.5,0.5-0.9,1-1.2,1.5v-1c0-5.9,4.4-10.7,10.1-11.4c0.7,9.1,8.3,16.3,17.5,16.3
		h26.4c-0.2,1.9-0.2,6,4,10c4.7,4.5,10.2,4.8,11.8,4.8l0.1-0.1c0.1-1.7-0.1-7.3-4.6-12c-1.2-1.3-2.5-2.2-3.7-2.8h15.2
		c9.7,0,17.6-7.9,17.6-17.6V153c1.7,0,4.2-0.5,6.8-3.2C252.3,146.2,252.5,142,252.5,140.7z"/>
</g>
<g>
</g>
<g>
</g>
<g>
</g>
<g>
</g>
<g>
</g>
<g>
</g>
<g>
</g>
<g>
</g>
<g>
</g>
<g>
</g>
<g>
</g>
<g>
</g>
<g>
</g>
<g>
</g>
<g>
</g>
</svg>
